<?xml version="1.0" encoding="utf-8"?>
<!-- Generator: Adobe Illustrator 27.5.0, SVG Export Plug-In . SVG Version: 6.00 Build 0)  -->
<svg version="1.1" id="_x31_" xmlns="http://www.w3.org/2000/svg" xmlns:xlink="http://www.w3.org/1999/xlink" x="0px" y="0px"
	 viewBox="0 0 2122 2122" style="enable-background:new 0 0 2122 2122;" xml:space="preserve">
<g>
	<path style="fill:#672F4D;" d="M1238.795,590.057c-12.968-1.914-22.877-7.918-28.853-16.338
		c-15.261,39.568-36.139,68.054-59.395,88.013l16.149,92.128c13.23,1.048,26.143,2.281,38.712,3.685v-0.015
		c19.174,1.488,37.585,3.5,54.974,5.799c2.296-4.524,10.317-5.307,11.993,0.978l0.186,0.698
		c72.929,10.486,124.839,25.478,130.524,27.155l0.467,0.138l0.112,0.033l0.013,0.008c31.488,9.489,59.631,30.034,78.168,59.721
		l0.582-0.684c5.468-6.225,14.518,2.894,9.082,9.082c-0.99,1.127-1.939,2.294-2.917,3.432l92.556,171.387
		c32.519-2.748,63.05-17.867,84.12-44.908c19.316-24.803,27.258-55.328,24.913-85.726c-0.043-0.722,0.019-1.415-0.083-2.153
		c-8.412-62.513,25.205-83.103,25.205-83.103l-0.104-0.105c8.993-6.409,17.273-14.067,24.395-23.205
		c42.783-54.927,30.285-137.934-27.924-185.399c-28.384-23.146-62.387-33.472-94.749-31.705l0.031-0.094
		c0,0-0.481,0.074-1.348,0.127l-1.295,0.047c-7.666,0.154-30.366-2.058-43.481-31.942l-0.065,0.084
		c-10.255-24.843-27.687-47.503-51.636-64.233c-61.619-43.05-142.396-30.698-180.422,27.575c-1.151,1.763-2.082,3.613-3.13,5.422
		l-0.127-0.116c-4.771,8.162-10.376,13.883-16.268,17.839c-0.536,4.957-1.952,10.108-4.368,15.324
		C1302.288,576.027,1268.257,594.406,1238.795,590.057z"/>
	<path style="fill:#E6CAE2;" d="M1274.588,1813.004h-69.179v-152.381c-44.577,3.22-95.349,5.051-149.27,5.051
		c-56.376,0-109.317-2-155.325-5.499v152.828h-71.742c0,8.278-12.844,8.265-12.844,0H707.753l-9.697,95.297h685.762
		c0,0,3.381-36.484,5.639-95.297h-102.025C1287.432,1821.282,1274.588,1821.269,1274.588,1813.004z"/>
	<path style="fill:#BC3634;" d="M1232.968,531.71c-2.171,2.701-2.639,6.443,0,9.082c2.248,2.248,6.898,2.717,9.083,0
		c4.201-5.227,9.629-9.131,15.546-12.145c1.453,5.324,1.796,10.759,0.698,15.979c-1.375,6.535-4.252,12.082-8.498,16.709
		c-2.344,2.554-2.526,6.556,0,9.082c2.377,2.377,6.728,2.565,9.083,0c11.461-12.486,15.698-30.32,10.636-46.471
		c4.15-1.129,8.498-1.704,12.657-0.31c4.079,1.366,6.84,4.596,6.508,8.976c-0.263,3.463,3.14,6.422,6.422,6.422
		c3.693,0,6.159-2.949,6.422-6.422c0.576-7.609-3.789-14.757-10.108-18.74c-6.635-4.182-14.819-4.513-22.314-3.059
		c-6.833,1.325-13.66,4.237-19.746,7.565C1243.162,521.764,1237.403,526.193,1232.968,531.71z"/>
	<path style="fill:#BC3634;" d="M862.379,518.606c-6.203-3.445-13.173-6.424-20.157-7.793c-7.353-1.442-15.322-1.12-21.912,2.807
		c-6.543,3.898-11.096,11.248-10.51,18.993c0.262,3.459,2.764,6.422,6.422,6.422c3.273,0,6.686-2.944,6.422-6.422
		c-0.316-4.171,2.174-7.38,6.055-8.832c4.258-1.593,8.812-1,13.109,0.169c-5.059,16.151-0.823,33.984,10.638,46.469
		c2.346,2.556,6.704,2.378,9.083,0c2.545-2.545,2.352-6.52,0-9.082c-4.24-4.62-7.123-10.171-8.499-16.709
		c-1.097-5.215-0.754-10.653,0.698-15.979c5.918,3.014,11.344,6.917,15.546,12.145c2.175,2.705,6.817,2.266,9.083,0
		c2.674-2.674,2.18-6.37,0-9.082C874.019,526.315,868.414,521.958,862.379,518.606z"/>
	<path style="fill:#FCC105;" d="M1205.409,1253.008c-32.166-2.362-60.912-8.953-61.463-16.172
		c-0.458-6.016,10.757-12.261,28.611-17.141c-12.385-0.043-23.537-0.764-32.685-2.094v58.206c0,9.279-7.521,16.8-16.8,16.8h-15.494
		H983.151h-15.493c-9.279,0-16.8-7.521-16.8-16.8v-29.411c-12.779,3.376-31.085,5.948-50.044,7.005v406.775
		c46.008,3.499,98.949,5.499,155.325,5.499c53.921,0,104.693-1.831,149.27-5.051V1253.008z"/>
	<path style="fill:#FCC105;" d="M939.81,1219.694c4.041,1.104,7.749,2.275,11.048,3.501v-3.719
		C947.315,1219.618,943.609,1219.681,939.81,1219.694z"/>
	<path style="fill:#FCC105;" d="M1139.872,1186.85v3.423c4.228-1.229,8.886-2.388,13.898-3.468
		C1148.983,1186.911,1144.326,1186.933,1139.872,1186.85z"/>
	<path style="fill:#FCC105;" d="M900.814,1109.312c14.397,0.015,29.368,0.539,43.824,1.641c2.101,0.161,4.15,0.351,6.219,0.53
		v-121.27c0-9.278,7.521-16.8,16.8-16.8h15.493h124.427h15.494c9.278,0,16.8,7.521,16.8,16.8v123.541
		c8.882-1.105,18.186-2.064,27.857-2.801c12.41-0.946,25.198-1.463,37.68-1.602V757.545c-12.569-1.403-25.481-2.637-38.712-3.685
		l5.893,33.621h0c0.398,1.595,0.607,3.213,0.607,4.851c0,26.585-53.763,48.136-120.084,48.136
		c-66.32,0-120.083-21.551-120.083-48.136c0-1.935,0.318-3.84,0.872-5.716l4.909-32.186c-12.995,1.1-25.664,2.381-37.995,3.825
		V1109.312z"/>
	<path style="fill:#ED6B6E;" d="M933.029,792.331c0,26.585,53.763,48.136,120.083,48.136c66.321,0,120.084-21.551,120.084-48.136
		c0-1.637-0.209-3.255-0.607-4.851h0l-5.893-33.621l-16.149-92.128c23.256-19.959,44.134-48.445,59.395-88.013
		c5.975,8.419,15.885,14.424,28.853,16.338c29.461,4.349,63.493-14.03,76.014-41.05c2.416-5.216,3.833-10.367,4.368-15.324
		c2.241-20.724-11.268-37.967-35.042-41.476c-19.342-2.855-40.617,4.126-56.519,16.877c0.116-0.645,0.228-1.299,0.341-1.949
		c-64.825-50.875-74.844-128.821-74.844-128.821C1086.902,479.926,880.686,506.574,880.488,506.6l0.001,0.009
		c-15.487-11.169-35.242-17.068-53.3-14.403c-29.461,4.349-43.195,29.78-30.675,56.8c12.521,27.02,46.553,45.4,76.014,41.05
		c9.525-1.406,17.374-5.04,23.254-10.195c13.253,42.082,32.431,72.021,55.648,91.797l-12.622,82.77l-4.909,32.186
		C933.346,788.492,933.029,790.396,933.029,792.331z M878.356,540.792c-2.266,2.266-6.908,2.705-9.083,0
		c-4.202-5.227-9.628-9.131-15.546-12.145c-1.452,5.326-1.795,10.764-0.698,15.979c1.375,6.538,4.259,12.089,8.499,16.709
		c2.352,2.562,2.545,6.537,0,9.082c-2.379,2.378-6.737,2.556-9.083,0c-11.461-12.485-15.696-30.318-10.638-46.469
		c-4.297-1.169-8.851-1.761-13.109-0.169c-3.882,1.452-6.371,4.661-6.055,8.832c0.263,3.477-3.15,6.422-6.422,6.422
		c-3.657,0-6.16-2.963-6.422-6.422c-0.586-7.745,3.967-15.094,10.51-18.993c6.59-3.927,14.56-4.249,21.912-2.807
		c6.985,1.369,13.954,4.348,20.157,7.793c6.035,3.352,11.64,7.71,15.977,13.104C880.536,534.422,881.029,538.119,878.356,540.792z
		 M1135.454,686.843c-29.895,23.88-67.962,34.279-105.847,29.06c-3.431-0.473-5.344-4.907-4.485-7.9
		c1.047-3.645,4.438-4.963,7.9-4.485c32.831,4.523,67.471-5.085,93.349-25.757C1132.771,672.649,1141.911,681.685,1135.454,686.843z
		 M1122.253,523.663c0,9.781-4.7,17.712-10.496,17.712c-5.796,0-10.495-7.93-10.495-17.712c0.001-9.782,4.699-17.712,10.495-17.712
		C1117.553,505.951,1122.253,513.881,1122.253,523.663z M1106.343,611.06c3.386,0,6.542,2.953,6.422,6.422
		c-0.469,13.691-6.74,27.176-17.533,35.772c-11.566,9.21-26.644,12.565-41.054,9.292c-3.398-0.771-5.374-4.667-4.486-7.9
		c0.948-3.451,4.52-5.253,7.9-4.486c9.842,2.235,21.091-0.035,29.162-6.475c8.097-6.461,12.827-16.296,13.167-26.204
		C1100.041,614.003,1102.766,611.06,1106.343,611.06z M1249.356,518.378c6.087-3.328,12.913-6.241,19.746-7.565
		c7.495-1.453,15.679-1.122,22.314,3.059c6.319,3.983,10.684,11.131,10.108,18.74c-0.263,3.473-2.729,6.422-6.422,6.422
		c-3.282,0-6.685-2.959-6.422-6.422c0.332-4.379-2.429-7.609-6.508-8.976c-4.158-1.393-8.506-0.819-12.657,0.31
		c5.061,16.151,0.825,33.985-10.636,46.471c-2.354,2.565-6.705,2.377-9.083,0c-2.526-2.526-2.344-6.528,0-9.082
		c4.247-4.627,7.124-10.174,8.498-16.709c1.098-5.22,0.755-10.656-0.698-15.979c-5.917,3.014-11.345,6.917-15.546,12.145
		c-2.184,2.717-6.834,2.248-9.083,0c-2.639-2.64-2.171-6.381,0-9.082C1237.403,526.193,1243.162,521.764,1249.356,518.378z
		 M1133.566,556.525c2.565-14.812,16.651-24.742,31.464-22.177c14.812,2.565,24.742,16.651,22.177,31.464
		c-2.564,14.813-16.651,24.742-31.463,22.177C1140.931,585.424,1131.002,571.337,1133.566,556.525z M1014.755,569.316
		c5.451-2.188,11.404-2.58,16.491-5.681c4.877-2.973,8.533-7.512,11.169-12.523c6.807-12.943,4.987-28.526,2.013-42.256
		c-1.748-8.072,10.638-11.489,12.386-3.414c5.072,23.42,5.048,51.363-16.028,67.178c-4.332,3.251-9.189,5.324-14.416,6.665
		c-4.847,1.243-10.74,1.997-12.109,7.681c-3.109,12.907,14.57,17.967,23.702,19.699c8.124,1.541,4.663,13.918-3.415,12.385
		c-12.583-2.387-25.809-7.691-31.301-20.212C998.189,587.311,1002.938,574.059,1014.755,569.316z M995.18,505.951
		c5.796,0,10.495,7.93,10.495,17.711c0,9.782-4.699,17.712-10.495,17.712c-5.797,0-10.496-7.931-10.496-17.712
		C984.684,513.881,989.383,505.951,995.18,505.951z M942.581,585.658c-14.813-2.565-24.742-16.651-22.178-31.464
		c2.565-14.813,16.651-24.742,31.464-22.178c14.812,2.565,24.742,16.651,22.177,31.464
		C971.481,578.293,957.393,588.222,942.581,585.658z"/>
	<path style="fill:#BC3634;" d="M1126.372,677.76c-25.879,20.672-60.518,30.28-93.349,25.757c-3.462-0.477-6.853,0.84-7.9,4.485
		c-0.859,2.993,1.054,7.427,4.485,7.9c37.885,5.22,75.952-5.18,105.847-29.06C1141.911,681.685,1132.771,672.649,1126.372,677.76z"
		/>
	<path style="fill:#3A0F10;" d="M1101.261,523.663c0,9.781,4.699,17.712,10.495,17.712c5.797,0,10.496-7.93,10.496-17.712
		c0-9.782-4.7-17.712-10.496-17.712C1105.96,505.951,1101.261,513.881,1101.261,523.663z"/>
	<path style="fill:#3A0F10;" d="M995.18,541.374c5.796,0,10.495-7.93,10.495-17.712c0-9.781-4.699-17.711-10.495-17.711
		c-5.797,0-10.496,7.93-10.496,17.711C984.684,533.444,989.383,541.374,995.18,541.374z"/>
	<path style="fill:#F0868F;" d="M1155.744,587.989c14.813,2.565,28.899-7.364,31.463-22.177
		c2.565-14.813-7.364-28.899-22.177-31.464c-14.813-2.564-28.9,7.365-31.464,22.177
		C1131.002,571.337,1140.931,585.424,1155.744,587.989z"/>
	<path style="fill:#F0868F;" d="M974.044,563.481c2.565-14.813-7.364-28.9-22.177-31.464c-14.813-2.564-28.899,7.365-31.464,22.178
		c-2.564,14.812,7.365,28.899,22.178,31.464C957.393,588.222,971.481,578.293,974.044,563.481z"/>
	<path style="fill:#BC3634;" d="M1003.245,598.838c5.492,12.521,18.718,17.824,31.301,20.212
		c8.078,1.533,11.539-10.844,3.415-12.385c-9.131-1.732-26.811-6.792-23.702-19.699c1.369-5.684,7.262-6.437,12.109-7.681
		c5.228-1.341,10.084-3.414,14.416-6.665c21.076-15.815,21.1-43.758,16.028-67.178c-1.748-8.075-14.133-4.658-12.386,3.414
		c2.974,13.73,4.795,29.313-2.013,42.256c-2.636,5.012-6.292,9.55-11.169,12.523c-5.087,3.101-11.041,3.493-16.491,5.681
		C1002.938,574.059,998.189,587.311,1003.245,598.838z"/>
	<path style="fill:#BC3634;" d="M1086.755,643.687c-8.072,6.44-19.321,8.71-29.162,6.475c-3.38-0.767-6.952,1.034-7.9,4.486
		c-0.889,3.233,1.088,7.128,4.486,7.9c14.41,3.272,29.489-0.083,41.054-9.292c10.793-8.596,17.065-22.081,17.533-35.772
		c0.119-3.469-3.037-6.422-6.422-6.422c-3.578,0-6.303,2.942-6.422,6.422C1099.582,627.391,1094.852,637.226,1086.755,643.687z"/>
	<path style="fill:#6B9CC8;" d="M816.228,1812.134c-0.91-19.668,0-39.596,0-59.279c0-40.528,0-81.057,0-121.586
		c0-46.844,0-93.688,0-140.532c0-38.705,0-77.411,0-116.117c0-11.988,0-23.975,0-35.963c-28.43,20.101-56.86,40.202-85.29,60.303
		c-30.542,21.594-61.084,43.188-91.625,64.783c-0.324,165.563,3.831,308.082,11.124,349.261h57.316h108.475V1812.134z"/>
	<path style="fill:#6B9CC8;" d="M845.269,767.722c-3.04,11.407-6.082,22.814-9.122,34.221
		c-13.18,49.444-26.361,98.888-39.541,148.331c-8.043,30.173-16.086,60.346-24.13,90.519c18.028,24.698,36.056,49.397,54.084,74.096
		l0.461,0.786c14.698-4.071,42.897-6.397,73.794-6.363V758.254v-0.003c-18.801,1.459-37.407,3.824-55.377,6.725
		C845.571,765.813,845.532,766.732,845.269,767.722z"/>
	<path style="fill:#6B9CC8;" d="M900.814,1253.4c-11.876,0.663-23.987,0.727-35.149,0.024l0.378,0.604
		c5.027,10.157,9.749,20.909,11.045,32.278c0.512,4.488,0.715,8.368-3.077,11.498c-3.502,2.891-7.522,5.318-11.226,7.938
		c-11.217,7.93-22.434,15.862-33.65,23.792c0.737,18.895-0.062,38.005-0.062,56.896c0,40.528,0,81.057,0,121.586
		c0,46.844,0,93.688,0,140.532c0,38.706,0,77.411,0,116.117c0,16.114,0,32.228,0,48.341h71.742v-152.828V1253.4z"/>
	<path style="fill:#6B9CC8;" d="M685.312,927.83c4.961-26.427,10.259-52.798,15.865-79.115c1.724-8.093,14.103-4.647,12.386,3.415
		c-5.477,25.708-10.764,51.458-15.676,77.281c-1.032,5.425-1.981,10.86-2.969,16.289l-0.046,0.255
		c-13.988,76.941-23.599,154.391-28.654,232.468c32.281-17.931,64.563-35.862,96.846-53.793c1.952-1.084,4.543-1.25,6.482,0
		c5.943,3.831,11.469,8.407,16.813,13.056l20.616-11.633c2.651-1.904,5.403-3.57,8.23-5.043
		c-17.807-24.396-35.614-48.793-53.421-73.189c-3.419-4.686-2.286-8.215-0.918-13.349c2.405-9.024,4.811-18.047,7.216-27.071
		c8.455-31.72,16.911-63.44,25.367-95.16c12.884-48.332,25.768-96.665,38.652-144.998c-48.214,8.633-90.621,20.724-117.586,29.305
		c-10.502,2.431-20.752,5.9-30.555,10.423l-0.045,0.017l-0.003,0.003c-21.224,9.801-40.372,24.409-55.704,43.24
		c0.455,0.306,0.902,0.666,1.324,1.146C650.308,875.031,668.562,901.097,685.312,927.83z"/>
	<path style="fill:#6B9CC8;" d="M429.283,1505.165c22.337,12.063,46.486,17.422,70.167,16.839
		c25.363,1.967,51.539-4.302,74.228-19.691l52.685-37.251c-1.612-2.779-1.54-6.749,1.808-9.116
		c9.898-6.998,19.796-13.996,29.693-20.994c42.883-30.32,85.766-60.64,128.649-90.96c25.969-18.361,51.938-36.722,77.907-55.083
		c-0.096-1.269-0.187-2.512-0.419-3.791c-1.568-8.617-5.192-16.815-9.05-24.608c-1.858-3.754,0.09-7.268,2.934-8.857
		c-20.145-50.892-49.285-84.582-69.259-103.303c-2.284,2.204-6.048,3.057-9.102,0.371c-4.359-3.834-8.819-7.642-13.574-11.005
		c-12.143,6.745-24.286,13.489-36.428,20.233c-57.84,32.127-115.682,64.255-173.523,96.383
		c-36.568,20.311-73.136,40.623-109.704,60.934c-7.24,4.022-13.71-7.076-6.483-11.09c13.34-7.41,26.681-14.82,40.021-22.23
		c57.84-32.127,115.682-64.255,173.523-96.383l0.826-0.458c-0.711-0.976-1.115-2.253-1.014-3.847
		c1.611-25.448,3.589-50.872,6.091-76.248c5.241-53.148,13.091-105.897,22.555-158.381c-18.226-30.067-38.104-59.676-61.325-86.122
		c-3.146,4.586-6.094,9.37-8.796,14.374l-238.665,441.938C336.555,1384.364,361.739,1468.688,429.283,1505.165z"/>
	<path style="fill:#6B9CC8;" d="M1421.404,1431.569c-44.572-31.514-89.144-63.028-133.715-94.542
		c0.315,16.445-0.256,33.004-0.256,49.401c0,40.528,0,81.057,0,121.586c0,46.844,0,93.688,0,140.532c0,38.706,0,77.411,0,116.117
		c0,16.114,0,32.228,0,48.341h102.025h46.478c8.043-40.729,17.957-186.75,22.645-356.189c-0.982-0.061-2.013-0.383-3.058-1.123
		C1444.15,1447.651,1432.777,1439.61,1421.404,1431.569z"/>
	<path style="fill:#6B9CC8;" d="M1287.663,821.657c17.211,64.564,34.422,129.128,51.633,193.692
		c2.015,7.558,4.164,15.094,6.048,22.686c1.66,6.694-2.225,10.275-6.05,15.516c-15.718,21.535-31.437,43.07-47.155,64.605
		c0.98,0.5,1.777,1.02,2.391,1.556c3.757,1.754,7.397,3.849,10.865,6.34l16.894,9.533c4.592-3.915,9.344-7.703,14.391-10.955
		c1.939-1.25,4.531-1.084,6.483,0c13.341,7.41,26.681,14.82,40.021,22.23c20.654,11.472,41.308,22.944,61.963,34.416
		c-1.465-21.755-3.13-43.495-5.184-65.203c-8.402-88.798-23-176.732-41.565-263.944c-1.719-8.075,10.666-11.495,12.385-3.415
		c5.61,26.349,10.912,52.762,15.773,79.259c16.617-26.529,34.72-52.395,55.29-75.913c-18.536-29.687-46.679-50.233-78.168-59.721
		l-0.013-0.008l-0.112-0.033l-0.467-0.138c-5.685-1.677-57.595-16.669-130.524-27.155
		C1277.595,783.889,1282.63,802.773,1287.663,821.657z"/>
	<path style="fill:#6B9CC8;" d="M1279.186,1114.223c17.866-24.477,35.732-48.954,53.597-73.43
		c-2.777-10.416-5.553-20.831-8.33-31.246c-13.18-49.443-26.36-98.887-39.54-148.331c-8.307-31.165-16.615-62.33-24.923-93.494
		c-0.454-1.7-0.227-3.174,0.393-4.393c-17.389-2.299-35.8-4.311-54.974-5.799v0.015v351.805
		C1234.743,1109.024,1262.328,1110.818,1279.186,1114.223z"/>
	<path style="fill:#6B9CC8;" d="M1205.409,1253.008v407.615v152.381h69.179v-0.87c-0.91-19.668,0-39.596,0-59.279
		c0-40.528,0-81.057,0-121.586c0-46.844,0-93.688,0-140.532c0-38.705,0-77.411,0-116.117c0-15.619,0-31.238,0-46.857
		c-12.183-8.614-24.366-17.228-36.548-25.841c-3.533-2.499-8.633-5-9.063-9.705c-0.327-3.572,0.738-7.62,1.485-11.076
		c2.055-9.518,5.778-18.63,9.979-27.404C1229.094,1254.159,1217.032,1253.861,1205.409,1253.008z"/>
	<path style="fill:#6B9CC8;" d="M1429.902,947.019c13.936,80.001,23.348,160.632,28.609,241.682
		c32.732,18.18,65.463,36.361,98.194,54.541c36.568,20.312,73.136,40.623,109.704,60.935c7.235,4.018,0.75,15.107-6.483,11.09
		c-13.34-7.41-26.681-14.819-40.021-22.229c-57.841-32.127-115.682-64.255-173.523-96.382
		c-35.37-19.646-70.739-39.293-106.11-58.938c-4.755,3.363-9.215,7.17-13.574,11.004c-3.055,2.688-6.818,1.834-9.103-0.372
		c-19.512,18.288-47.759,50.889-67.836,99.829c2.992,1.511,5.134,5.122,3.217,8.993c-4.659,9.409-10.154,21.075-10.994,31.863
		c8.136,5.752,16.271,11.504,24.407,17.256c39.999,28.281,79.997,56.561,119.995,84.842c25.207,17.823,50.414,35.645,75.621,53.468
		c3.352,2.37,3.422,6.338,1.808,9.115l68.732,48.596c21.75,14.751,46.705,21.14,71.074,19.912
		c24.444,1.098,49.49-4.191,72.586-16.664c67.949-36.695,93.285-121.526,56.59-189.475l-151.649-280.809l-92.556-171.387
		C1466.513,889.591,1447.427,918.082,1429.902,947.019z"/>
	<path style="fill:#004F59;" d="M958.596,1186.805c2.689,0.579,5.283,1.178,7.755,1.804v-1.714
		C963.814,1186.894,961.229,1186.863,958.596,1186.805z"/>
	<path style="fill:#004F59;" d="M967.658,1292.607h15.493c-9.278,0-16.8-7.521-16.8-16.8v-35.801
		c-2.779,2.301-8.241,4.473-15.493,6.389v29.411C950.858,1285.085,958.379,1292.607,967.658,1292.607z"/>
	<path style="fill:#004F59;" d="M950.858,1219.476v3.719c7.435,2.763,12.77,5.785,15.493,8.859v-13.682
		C961.578,1218.885,956.39,1219.256,950.858,1219.476z"/>
	<path style="fill:#004F59;" d="M966.351,990.213c0-9.278,7.523-16.8,16.8-16.8h-15.493c-9.279,0-16.8,7.521-16.8,16.8v121.27
		c5.268,0.456,10.466,0.951,15.493,1.52V990.213z"/>
	<path style="fill:#007E96;" d="M966.351,990.213v122.79c48.788,5.516,84.994,16.011,84.292,25.228
		c-0.584,7.654-27.999,14.216-65.69,15.505c25.269,5.278,41.951,12.661,41.421,19.625c-0.636,8.336-25.698,13.535-60.022,13.533
		v1.714c19.913,5.033,32.505,11.434,32.04,17.522c-0.446,5.861-12.877,10.181-32.04,12.241v13.682
		c1.41,1.591,2.19,3.194,2.069,4.782c-0.082,1.075-0.818,2.135-2.069,3.17v35.801c0,9.279,7.523,16.8,16.8,16.8h124.427h15.494
		c9.278,0,16.8-7.521,16.8-16.8v-58.206c-15.634-2.271-25.499-6.262-25.897-11.47c-0.414-5.435,9.59-11.119,25.897-15.858v-3.423
		c-31.139-0.585-53.281-5.657-53.878-13.489c-0.531-6.965,16.151-14.347,41.42-19.625c-37.691-1.29-65.106-7.851-65.689-15.505
		c-0.673-8.823,32.52-18.8,78.147-24.476V990.213c0-9.278-7.521-16.8-16.8-16.8h-15.494H983.151
		C973.874,973.413,966.351,980.934,966.351,990.213z M1002.652,995.712c7.822,0,14.163,6.341,14.163,14.163
		c0,7.822-6.341,14.163-14.163,14.163c-7.822,0-14.163-6.341-14.163-14.163C988.489,1002.053,994.83,995.712,1002.652,995.712z
		 M1002.652,1042.062c7.822,0,14.163,6.34,14.163,14.163c0,7.822-6.341,14.163-14.163,14.163c-7.822,0-14.163-6.341-14.163-14.163
		C988.489,1048.402,994.83,1042.062,1002.652,1042.062z M1002.652,1088.41c7.822,0,14.163,6.341,14.163,14.163
		s-6.341,14.163-14.163,14.163c-7.822,0-14.163-6.341-14.163-14.163S994.83,1088.41,1002.652,1088.41z"/>
	<path style="fill:#004F59;" d="M1002.652,1024.039c7.822,0,14.163-6.341,14.163-14.163c0-7.822-6.341-14.163-14.163-14.163
		c-7.822,0-14.163,6.341-14.163,14.163C988.489,1017.698,994.83,1024.039,1002.652,1024.039z"/>
	
		<ellipse transform="matrix(0.0383 -0.9993 0.9993 0.0383 -91.2333 2017.6482)" style="fill:#004F59;" cx="1002.652" cy="1056.224" rx="14.163" ry="14.163"/>
	
		<ellipse transform="matrix(0.0383 -0.9993 0.9993 0.0383 -137.5478 2062.22)" style="fill:#004F59;" cx="1002.652" cy="1102.573" rx="14.163" ry="14.163"/>
	<path style="fill:#ED6B6E;" d="M1061.725,1138.23c0.583,7.654,27.998,14.216,65.689,15.505
		c-25.269,5.278-41.951,12.661-41.42,19.625c0.597,7.832,22.74,12.905,53.878,13.489c4.454,0.083,9.111,0.06,13.898-0.045
		c-5.012,1.08-9.67,2.24-13.898,3.468c-16.306,4.739-26.311,10.423-25.897,15.858c0.398,5.208,10.263,9.199,25.897,11.47
		c9.148,1.329,20.3,2.05,32.685,2.094c-17.854,4.88-29.07,11.125-28.611,17.141c0.551,7.219,29.297,13.81,61.463,16.172
		c11.623,0.854,23.685,1.151,35.032,0.731c0.485-1.014,0.948-2.044,1.445-3.048c1.746-3.528,5.159-3.881,7.874-2.51
		c20.077-48.94,48.324-81.541,67.836-99.829c-2.341-2.261-3.128-5.942,0.02-8.71c1.542-1.356,3.098-2.712,4.671-4.054l-16.894-9.533
		c-3.468-2.491-7.108-4.586-10.865-6.34c-0.614-0.537-1.41-1.056-2.391-1.556c-0.782,1.072-1.565,2.144-2.347,3.216
		c-4.83,6.617-15.969,0.202-11.091-6.483l0.486-0.666c-16.858-3.406-44.442-5.2-73.777-4.873c-12.482,0.139-25.27,0.656-37.68,1.602
		c-9.67,0.737-18.975,1.696-27.857,2.801C1094.245,1119.43,1061.052,1129.407,1061.725,1138.23z"/>
	<path style="fill:#155D8A;" d="M1462.006,1444.602c-25.208-17.822-50.414-35.645-75.621-53.468
		c-39.999-28.28-79.997-56.561-119.995-84.842c-8.136-5.752-16.271-11.504-24.407-17.256c0.841-10.788,6.336-22.454,10.994-31.863
		c1.917-3.871-0.225-7.482-3.217-8.993c-2.715-1.371-6.128-1.017-7.874,2.51c-0.497,1.005-0.96,2.034-1.445,3.048
		c-4.201,8.775-7.924,17.886-9.979,27.404c-0.747,3.455-1.812,7.504-1.485,11.076c0.43,4.704,5.53,7.206,9.063,9.705
		c12.182,8.613,24.365,17.227,36.548,25.841c0,15.619,0,31.238,0,46.857c0,38.706,0,77.411,0,116.117c0,46.844,0,93.688,0,140.532
		c0,40.529,0,81.057,0,121.586c0,19.683-0.91,39.611,0,59.279v0.87c0,8.265,12.844,8.278,12.844,0c0-16.114,0-32.228,0-48.341
		c0-38.706,0-77.411,0-116.117c0-46.844,0-93.688,0-140.532c0-40.528,0-81.057,0-121.586c0-16.398,0.571-32.957,0.256-49.401
		c44.571,31.514,89.144,63.028,133.715,94.542c11.373,8.041,22.746,16.083,34.119,24.124c1.045,0.74,2.076,1.062,3.058,1.123
		c2.194,0.136,4.118-1.179,5.233-3.098C1465.427,1450.94,1465.357,1446.971,1462.006,1444.602z"/>
	<path style="fill:#ED6B6E;" d="M865.666,1253.424c11.161,0.704,23.273,0.639,35.149-0.024c18.959-1.057,37.264-3.629,50.044-7.005
		c7.253-1.916,12.714-4.088,15.493-6.389c1.251-1.035,1.987-2.095,2.069-3.17c0.121-1.588-0.659-3.191-2.069-4.782
		c-2.723-3.073-8.059-6.096-15.493-8.859c-3.299-1.226-7.008-2.396-11.048-3.501c3.8-0.013,7.505-0.077,11.048-0.218
		c5.532-0.22,10.72-0.591,15.493-1.105c19.163-2.06,31.594-6.38,32.04-12.241c0.465-6.088-12.127-12.49-32.04-17.522
		c-2.472-0.625-5.066-1.224-7.755-1.804c2.632,0.058,5.218,0.089,7.755,0.089c34.324,0.001,59.387-5.197,60.022-13.533
		c0.531-6.965-16.151-14.347-41.421-19.625c37.691-1.29,65.106-7.851,65.69-15.505c0.703-9.217-35.504-19.712-84.292-25.228
		c-5.027-0.569-10.225-1.064-15.493-1.52c-2.07-0.179-4.118-0.37-6.219-0.53c-14.456-1.102-29.427-1.626-43.824-1.641
		c-30.897-0.034-59.096,2.292-73.794,6.363c3.513,6.387-6.917,12.047-11.552,5.697l-0.264-0.362
		c-2.827,1.473-5.579,3.139-8.23,5.043l-20.616,11.633c0.75,0.651,1.507,1.3,2.25,1.954c3.149,2.77,2.362,6.451,0.02,8.711
		c19.974,18.721,49.115,52.411,69.259,103.303C860.471,1250.21,863.773,1250.394,865.666,1253.424z"/>
	<path style="fill:#155D8A;" d="M730.938,1398.961c28.43-20.101,56.86-40.202,85.29-60.303c0,11.988,0,23.976,0,35.963
		c0,38.706,0,77.411,0,116.117c0,46.844,0,93.688,0,140.532c0,40.529,0,81.057,0,121.586c0,19.683-0.91,39.611,0,59.279v0.87
		c0,8.265,12.844,8.278,12.844,0c0-16.114,0-32.228,0-48.341c0-38.706,0-77.411,0-116.117c0-46.844,0-93.688,0-140.532
		c0-40.528,0-81.057,0-121.586c0-18.891,0.799-38.001,0.062-56.896c11.216-7.931,22.433-15.862,33.65-23.792
		c3.704-2.619,7.724-5.047,11.226-7.938c3.792-3.13,3.589-7.01,3.077-11.498c-1.296-11.369-6.018-22.121-11.045-32.278l-0.378-0.604
		c-1.893-3.03-5.195-3.214-7.779-1.77c-2.844,1.589-4.792,5.103-2.934,8.857c3.858,7.793,7.481,15.991,9.05,24.608
		c0.232,1.279,0.323,2.522,0.419,3.791c-25.969,18.361-51.938,36.722-77.907,55.083c-42.883,30.32-85.766,60.64-128.649,90.96
		c-9.898,6.998-19.795,13.996-29.693,20.994c-3.349,2.367-3.42,6.337-1.808,9.116c1.612,2.779,4.906,4.368,8.291,1.975
		c1.554-1.098,3.106-2.196,4.659-3.294C669.855,1442.149,700.396,1420.555,730.938,1398.961z"/>
	<path style="fill:#155D8A;" d="M681.817,946.631c-9.464,52.485-17.314,105.234-22.555,158.381
		c-2.503,25.376-4.48,50.8-6.091,76.248c-0.101,1.594,0.303,2.87,1.014,3.847l-0.826,0.458
		c-57.841,32.128-115.683,64.255-173.523,96.383c-13.34,7.41-26.681,14.819-40.021,22.23c-7.228,4.014-0.757,15.112,6.483,11.09
		c36.568-20.311,73.136-40.623,109.704-60.934c57.841-32.128,115.682-64.255,173.523-96.383
		c12.142-6.745,24.285-13.489,36.428-20.233c4.755,3.363,9.215,7.171,13.574,11.005c3.054,2.686,6.818,1.833,9.102-0.371
		c2.342-2.26,3.13-5.941-0.02-8.711c-0.742-0.653-1.499-1.302-2.25-1.954c-5.345-4.649-10.87-9.225-16.813-13.056
		c-1.939-1.25-4.53-1.084-6.482,0c-32.283,17.931-64.565,35.862-96.846,53.793c5.055-78.078,14.666-155.527,28.654-232.468
		l0.046-0.255c0.988-5.43,1.937-10.865,2.969-16.289c4.912-25.823,10.2-51.573,15.676-77.281
		c1.717-8.062-10.662-11.508-12.386-3.415c-5.606,26.317-10.904,52.688-15.865,79.115c-16.75-26.732-35.003-52.798-55.78-76.453
		c-0.421-0.479-0.868-0.84-1.324-1.146c-5.456-3.66-12.777,4.514-7.759,10.228l0.043,0.05
		C643.713,886.955,663.591,916.563,681.817,946.631z"/>
	<path style="fill:#155D8A;" d="M1426.555,927.973c-4.861-26.497-10.164-52.91-15.773-79.259c-1.72-8.081-14.104-4.661-12.385,3.415
		c18.566,87.212,33.164,175.146,41.565,263.944c2.054,21.708,3.719,43.448,5.184,65.203c-20.655-11.472-41.309-22.944-61.963-34.416
		c-13.341-7.41-26.681-14.819-40.021-22.23c-1.952-1.084-4.543-1.25-6.483,0c-5.047,3.253-9.799,7.041-14.391,10.955
		c-1.574,1.342-3.13,2.698-4.671,4.054c-3.148,2.768-2.361,6.449-0.02,8.71c2.284,2.206,6.047,3.059,9.103,0.372
		c4.359-3.834,8.819-7.642,13.574-11.004c35.371,19.646,70.74,39.292,106.11,58.938c57.841,32.127,115.682,64.255,173.523,96.382
		c13.34,7.41,26.681,14.819,40.021,22.229c7.233,4.017,13.718-7.072,6.483-11.09c-36.568-20.312-73.136-40.623-109.704-60.935
		c-32.731-18.18-65.462-36.361-98.194-54.541c-5.262-81.05-14.673-161.681-28.609-241.682
		c17.525-28.937,36.611-57.428,58.689-83.129c0.978-1.138,1.927-2.305,2.917-3.432c5.436-6.188-3.614-15.307-9.082-9.082
		l-0.582,0.684C1461.274,875.578,1443.171,901.445,1426.555,927.973z"/>
	<path style="fill:#672F4D;" d="M1153.114,378.313c0,0,10.019,77.946,74.844,128.821l0.017,0.014
		c0,0,106.945-278.375-40.363-289.525c-147.308-11.15-354.122-13.633-337.753,133.541c16.371,147.174,30.626,155.436,30.626,155.436
		l0.004-0.001C880.686,506.574,1086.902,479.926,1153.114,378.313z"/>
	<path style="fill:#155D8A;" d="M793.449,912.241c-8.456,31.72-16.911,63.44-25.367,95.16c-2.405,9.024-4.811,18.048-7.216,27.071
		c-1.368,5.134-2.502,8.663,0.918,13.349c17.807,24.396,35.614,48.793,53.421,73.189l0.264,0.362
		c4.635,6.35,15.065,0.69,11.552-5.697l-0.461-0.786c-18.028-24.699-36.056-49.398-54.084-74.096
		c8.044-30.173,16.087-60.346,24.13-90.519c13.18-49.443,26.36-98.887,39.541-148.331c3.04-11.407,6.082-22.814,9.122-34.221
		c0.264-0.99,0.303-1.909,0.169-2.746c-0.951-5.919-10.687-7.671-12.554-0.669c-0.261,0.979-0.522,1.957-0.783,2.936
		C819.216,815.576,806.333,863.909,793.449,912.241z"/>
	<path style="fill:#155D8A;" d="M1259.99,767.722c8.307,31.164,16.615,62.329,24.923,93.494
		c13.18,49.444,26.36,98.888,39.54,148.331c2.777,10.416,5.553,20.831,8.33,31.246c-17.866,24.476-35.731,48.953-53.597,73.43
		l-0.486,0.666c-4.879,6.684,6.261,13.1,11.091,6.483c0.782-1.072,1.565-2.144,2.347-3.216
		c15.718-21.535,31.437-43.07,47.155-64.605c3.825-5.24,7.71-8.822,6.05-15.516c-1.883-7.592-4.033-15.128-6.048-22.686
		c-17.211-64.564-34.421-129.128-51.633-193.692c-5.033-18.884-10.068-37.768-15.101-56.652l-0.186-0.698
		c-1.676-6.286-9.697-5.502-11.993-0.978C1259.764,764.548,1259.537,766.022,1259.99,767.722z"/>
</g>
</svg>
